<svg xmlns="http://www.w3.org/2000/svg" viewBox="0 0 4000 4000"><g fill-rule="evenodd"><path fill="#080404" d="M1890 10h-20v30a14870 14870 0 0 0 20 830v50h50l-10-90a13190 13190 0 0 1-10-640c0-220 0-190-30-180m40 60a19880 19880 0 0 1 10 810v40h60v-60a12670 12670 0 0 1-20-750L1970 0h-50zm60-20a30340 30340 0 0 1 20 850c0 20 10 20 40 30h10v-60a4890 4890 0 0 0-10-310V330c-10-300-10-330-30-320l-10-10h-20zm60-40v40a5110 5110 0 0 1 10 460 11370 11370 0 0 1 10 350v70l10 10h20V590a6870 6870 0 0 1-10-520l-10-30-20-20h-10zm-200 20-20 20q0-15 0 0l10 170a34370 34370 0 0 0 10 670v40l20-10 10-10-10-450c-10-490-10-460-20-430m-30 40v250l-10 10h10v140l10 70-10 10 10 60a1030 1030 0 0 0 0 140v150c10 70 10 20 10-290l-10-220a81950 81950 0 0 1-10-320m280 100a17070 17070 0 0 1 20 640c-10 110-10 140 10 140h10l-10-40 10-50v-10a16650 16650 0 0 1-40-780h-10zm-190 760c-40 10-40 10-40 40v20h150v-60zm-70 10h-20l-10 10h-10l-20 10h-30l-10 10v50a400 400 0 0 0 100-20l20-10v-50zm190 20c0 30 0 30 40 40a5190 5190 0 0 1 100 20v-60h-40l-40-10-40-10zm150 20c0 50 0 50 80 90l30 10v-60c-10 10-30 0-30-10s0-10 0 0l-10-10q0 15 0 0h-20l-20-10-10-20h-10zm-460 0-10 10h-10l-10 10h-10v10h-10v10h-10l-10 10v20c0 40 0 40 30 10 50-30 50-30 50-60v-30zm100 40a280 280 0 0 0-60 20c-10-10-60 20-60 30h-10l-50 70-20 30v20h10v20s10 0 0 0l10 10v20l10 20h20l10 20 20 10 10 20c10-10 10 0 20 10l30 10 20 10 10 10c20 0 30 0 40-20a4220 4220 0 0 1 80-130l10-30h40l60 10h20l10-10 50 60 10 30 20 30 10 20 10 20c0 20 50 50 60 40v-10h10l70-30v-10h10l10-10 20-20 10-10v-10l20-20q15 0 0 0l-10-40v-40l-20-30-30-30c0-10-100-70-140-80-110-30-240-40-340-10m480 40c0 30 0 30 40 80l20 20v-60c-10 10-20 0-20-10l-10-10-10-10-10-20-10-10zm-670 10v10l-10 10v60l10-20c10-30 20-80 0-60m250 800-30 10h10l40-10c40 0 60-10 30-10zm-50 10v10l10-10zm-50 20h-10v10zh20zm140 20h10zs-10 0 0 0m-70 10h10l10-10zm240 0h20l-20-10zm-390 10h10l10-10zm430 0h10l-10-10zm130-10v10q0 15 0 0zm-40 40 10 10v-10l-20-10zm90 0h10l-10-10zm-400 0-20 10h10l80-10h70zm150 0h20zm-250 30h20l10-10zm420 10-10 10v10q0 15 0 0l10-10zc10-20 0-20 0 0m130-10 10 10zl-10-10zm-200 0h20zm-90 30c-50 20-100 130-110 260a1190 1190 0 0 0 30 410l30 70c20 40 20 40-10 40h-30l30 10h30l20 20 30 20h60l20-10-10-10 30-40 20-30 10-30 10-50 30-160a1180 1180 0 0 0-50-370l-20-50c-40-60-80-90-120-80m170 0 20 10zm130 30 10 10 20 10-20-10zm160 100 10 10-10-20-10-10zm20 20 10 10 10 10-10-10zm-40 10 10 10q15 0 0 0zm-1110 30-10 10zl10-10zm1080 10h20l-10-10zm-1100 70-10 20zq15-15 0 0m-70 100-10 10zq15-15 0 0m1340 0 10 10zl-10-10zm70-10v10l10 10zm-1370 10-10 20zq15-15 0 0m1360 20v10l10-10zm-1380 10h10l-10-10zm1390 10v30l10-10zm-1410 20v10zh10zm1420 50-10 20q-15 0 0 0zm-210 210-10 10zq15-15 0 0m-190 70-10 10 20-10zm-400 60h10zq-15 0 0 0m20 10h20zm110 10h10zq-15 0 0 0m-190 10-10 10q-15 0 0 0l10 10v-30zm370 0-10 10q-15 0 0 0c20 0 20-10 10-10m-410 0 10 10v-10zq-15 0 0 0m100 30h10c10 0 0 0 0 0zm60 10h90c30-10 30-10-50-10-70 0-80 0-40 10m300 60v10l10 10zm1100 360v10l10-20zm230 150v10l10-10-10-10zm10 40v10l10-10zm-10 30h10v-10zm0 40v10zm-10 30 10 10v-20zm-10 40 10 10zm0 30 10 10v-10zm-3300 40 10 20 10-20-10-10zm0 40v10l10-10zm-10 20h20l-10-10zm-120 180h10v-10zm3470 10 10 10 10-10z"/><path fill="#fa8d04" d="m2050 1210 10 10-20-30zm-120 0-30 50 20-20zm140 30 40 60-10-20zm-190 40a680 680 0 0 0-50 80l-10 20a680 680 0 0 1-40 80l-20 20a620 620 0 0 0-50 90 1640 1640 0 0 0-110 180l-20 20-20 50-20 30-30 40-10 20-10 20-10 20a910 910 0 0 1-80 120 7340 7340 0 0 1-350 570 610 610 0 0 1-40 70l-40 60a3100 3100 0 0 0-190 310 560 560 0 0 0-30 60l-10 10-20 30-20 30-10 20-10 20-10 20-20 20-10 20-10 20-30 50-10 20-30 40-40 60-10 30-20 30-10 20-20 20-10 20-10 20-10 10v10l-30 40a2170 2170 0 0 0-130 210l-10 20a32940 32940 0 0 0 1140 10h740a432840 432840 0 0 1 1570 10l-10-30-30-40a2220 2220 0 0 0-130-220 11180 11180 0 0 1-260-430l-40-70a270 270 0 0 1-30-40l-30-50-20-30a670 670 0 0 1-30-60l-10-10a880 880 0 0 0-80-130l-10-20a5860 5860 0 0 1-290-470l-20-40a2480 2480 0 0 1-110-190l-10-10-30 30-20 30 20 20a1200 1200 0 0 1 160 230l-10 10v10s20 20 10 30l-10 10 10 20c10 10 10 10-20 40l-30 30-150 150 30 50 40 40 20 20 20 30-40-40-50-50-30-40-20 10a1170 1170 0 0 1-240 140h-10l10 40a1280 1280 0 0 0 50 100l-40-70c-30-60-30-70-40-60-10 20-100 30-180 30-90 0-100 0-170-20h-10l-30 50-30 60 10-30c40-80 40-90 0-100a820 820 0 0 1-210-100c-50-40-40-40-100 10-20 30-40 50-50 40l50-40 40-60-20-10-240-230 10-20 10-10-10-20-10-20v-30c-10-10-10-10 10-40a1230 1230 0 0 0 60-80l20-30 50-60 20-20 20-30c20-20 20-20-10-50l-30-30 40 30 30 30 30-40a330 330 0 0 1 50-40l50-40 20-20 40-30 80-40s10 0 0 0c0-20 0-30 10-20l20 10 40-10 40-20a530 530 0 0 1 280 20l100 50 10-20 10-10v20l-10 20h10c70 40 160 110 220 180l40 40 30-30 20-30a1230 1230 0 0 1-100-160l-10-30v-10l-50-70a1300 1300 0 0 0-60-100 730 730 0 0 0-40-60l-10-20a2700 2700 0 0 1-140-220l-10-10h-20l-50-20-40-10-80-10a680 680 0 0 1-100-30c-30 0-30 0-20-20l10-20 20-30zm240 40 10 10-20-30zm20 40 30 40-10-10zm-220 510-50 10-50 10c-30 10-30 10-20 30s10 20 40 10l70-20c60-10 160 0 190 10l50 20 70 20 20 20 10-20 10-20-30-20-50-20-100-20-10-10zm-160 50a480 480 0 0 0-110 70l-110 90-40 30 10 10c10 20 10 20 50-20a270 270 0 0 1 50-40l20-20 20-10c10-20 70-50 110-70l40-20-10-10-10-20zm150 10-90 20v20c10 20 10 20 60 0a620 620 0 0 1 310 30l30 10c20-30 10-40-50-60l-40-10c-20-20-150-20-220-10m350 30c-10 20-10 20 10 30l40 20a1090 1090 0 0 1 190 160l20 20 10-10 10-10-60-60a960 960 0 0 0-190-150l-30-10zm-470 0-70 40-40 10-10 10-40 30-70 60c-30 30-30 30-20 40l10 10 20-10 30-30a600 600 0 0 1 80-60l20-10 40-20 30-20 50-20-20-30zm130 20-80 20 30 60q-15 15-30-30c-15-45-10-30-30-20l-40 10a710 710 0 0 0-190 130l-20 20 30 30c40 40 30 40-10 0l-40-20a1650 1650 0 0 0-190 220l-10 20 10 20a1590 1590 0 0 0 270 220l10 10 10 10 70 40-50-40-150-140-50-50 10-20 20-20v-10l20-20 80-90 40-50a1100 1100 0 0 1 190-150l50-20 40-20 110-20 10-20c30-30 60-40 100-20l50 60 20 20 50 30a1260 1260 0 0 1 240 190 470 470 0 0 1 70 100l20 10 30 40 20 30 20-30 30-30-10-10a1190 1190 0 0 0-110-140l-40-40-30-40-10 20-20 10 10-20 10-10-10-10a940 940 0 0 0-240-180l-10 20c-20 30-20 30-10 0s10-30-20-40l-20-10c-10-10-190-30-250-20m320 10v20c-10 10-10 10 20 20a740 740 0 0 1 90 60 4540 4540 0 0 0 110 90l30 30 10-10 10-10-20-20c-80-80-240-200-250-180m-800 190-80 100-20 30-10 20-20 20-10 40 10 10 10-10 20-40 20-20a1590 1590 0 0 1 150-180l10-10-10-10c-20-10-10-10-70 50m70-20a1110 1110 0 0 0-90 100 840 840 0 0 0-90 120l-10 20v10c10 10 20 0 40-20a690 690 0 0 1 60-90l110-120c20-10 20-10 0-20l-10-10zm1020 20v20a1480 1480 0 0 1 160 190c20 30 20 30 30 20l-10-20-20-30v-10l-20-10-110-150zm-20 30-10 10 30 30 40 40v10l60 70c70 80 60 80 70 70l-20-40-20-40h-10l-10-10-20-40-30-30-70-80zm-1210 210 10 30c10 0 20-20 10-30l-10-10zm30 30v20l10 10a1410 1410 0 0 0 220 200l30 20 10-10 10-20-40-30-20-10-40-30-130-110-50-50zm1370 0v10l20 10c10-10-10-30-20-20m-90 90a2470 2470 0 0 1-130 140l10 10 10-10 20-10 180-190-10-10zm-1300-70c-10 20-10 10 30 60l220 200c10 0 20-20 10-30l-190-170-70-70zm1400 20-170 170c-50 40-50 40-30 50l10 10 10-20c30-10 30-20 90-80 100-100 110-100 100-120zm-1100 200-10 20a410 410 0 0 0 60 40 670 670 0 0 0 130 60 720 720 0 0 0 130 40h150l-60-10c-50 0-70-10-90-20l-30-10-60-20a14850 14850 0 0 0-200-100zm830 20a460 460 0 0 1-90 50l-130 60-50 20-10 10 30-10 90-30a1560 1560 0 0 0 160-90c40-20 40-20 30-30s-10-10-30 20m40 0-10 10-20 10-20 10-40 20a660 660 0 0 1-220 100 680 680 0 0 1-280-10l-10 20-10 20h10a730 730 0 0 0 120 20l30 10 40-10h20l130-30h20l-10-10-10-20h10l10 20 10 10 30-20 50-20 20-10 40-20 30-20 80-50 10-10-10-20zm-900 10-10 10a1320 1320 0 0 0 190 120 490 490 0 0 0 80 30c10 10 20 10 30-10s10-20-20-30l-50-10-40-20-100-50-30-20-20-10c-10-20-20-20-30-10"/><path fill="#fbf8fa" d="M1930 1180h20zm40 900a350 350 0 0 0-110 30l-50 30a280 280 0 0 1-50 30 860 860 0 0 0-190 190 280 280 0 0 0-40 50l-30 30-30 40-10 10 50 50a1050 1050 0 0 0 300 230l40 10 160 30h30l-20-30a270 270 0 0 1-30-70l-20-100-10-40a1360 1360 0 0 1 10-360l30-100 10-30zm220 30 10 20a830 830 0 0 1 40 160 1310 1310 0 0 1 0 410l-20 40-10 40 40-10a950 950 0 0 0 350-220c20-30 30-40 20-50l-20-20-20-30-10-10a1150 1150 0 0 0-370-330zm310 530a620 620 0 0 1-90 60l-170 80c-40 20-60 30-60 50a610 610 0 0 0 220-110l30-20 20-10 20-20a1150 1150 0 0 1 60-50zm-670 150c60 30 150 50 220 50h10l-10-10-50-20-150-20z"/><path fill="#fbe804" d="M2040 1180h-10l60 90a790 790 0 0 0 50 70 1940 1940 0 0 0 130 220 3470 3470 0 0 0 190 320 560 560 0 0 1 60 90l30 50 50 80c10-10 20 0 10 10l20 40a2260 2260 0 0 1 110 190l20 40 20 30a7280 7280 0 0 1 320 520 1370 1370 0 0 1 90 160 3350 3350 0 0 1 210 340 3730 3730 0 0 0 220 360 1130 1130 0 0 1 80 130c20 40 20 40-30 30a99360 99360 0 0 0-2420-10l-990-10a900 900 0 0 1 80-130 940 940 0 0 1 70-120 1210 1210 0 0 1 70-110 960 960 0 0 1 70-110l10-30 30-40a3970 3970 0 0 0 230-370l20-40 20-20a690 690 0 0 0 50-90l10-20a3170 3170 0 0 1 180-290 2000 2000 0 0 0 120-190 550 550 0 0 0 40-80l10-10 10-20 20-20 10-20 10-10 10-20 10-20 10-20 10-20 10-10 10-10 10-20 10-20 10-20 10-20 10-10 20-30a2090 2090 0 0 0 110-180l30-50 20-40 20-30 20-30 20-30 10-20 20-20 10-20 10-20 10-10 30-60 20-20 10-30 40-60 10-20 20-30 10-20 70-120c-10 0-20 0-20 20l-10 10-20 20-20 40-10 20-10 10-20 40-10 10-10 10-10 10v10l-10 20-20 30-10 10-10 20-10 10-10 10-10 30-20 20-10 30-20 30-20 20-20 40-10 20-20 30-20 40-10 10-10 20-10 20-10 10-10 20-10 10-10 10-10 30-30 50-10 10-20 30-20 40-10 10-20 30-20 30-10 20v10l-10 20-20 30-20 20-10 20-30 40-10 40-10 10-20 30-20 20-10 30-20 20v10l-10 10-10 20-10 20-20 30-20 30-20 30-10 20-20 40-10 10-10 20-20 30-20 30-20 40-20 30-10 20-20 30-20 20-10 30-20 20v10l-20 20v10l-10 10-10 20-20 30-20 40-10 20-20 30-20 30-20 30-10 20-20 20-10 30-10 20-30 50-20 20v10l-20 20-20 40-20 30-30 40-10 30-10 10v10h-10v20l-10 10-40 60-10 10v10l-10 10-10 20v10l-10 10-20 30-20 30-20 40-10 10-10 10v20l-10 10-20 20-20 40-10 20-20 30c-40 60-40 70-20 70l10 10h70l10-10 10 10h500a699900 699900 0 0 1 2910 10l-10-40h-10l-20-40-20-30v-10h-10v-20l-50-70-30-50-10-20-10-10-10-10v-10a1020 1020 0 0 1-40-70 450 450 0 0 0-40-60l-10-10v-20h-10l-10-20-10-20-10-10-10-20-10-20-20-30-10-20-10-10v-10l-20-30-10-20-20-30-20-20v-10l-10-20-10-10v-10l-10-10-10-20-30-40-10-20v-10h-10l-10-30-20-30-10-20-10-20-20-30-10-20-20-20v-10l-20-20-10-20v-10l-20-30-20-30-10-20-20-30-20-30-20-30-10-30-20-30-10-20-20-20-10-10-10-30-10-20-20-30-20-20v-10q15 0 0 0l-10-20-20-30-10-30-20-30-20-10-10-40a600 600 0 0 1-40-50l-10-30-20-30-20-20-10-30-20-20-10-30-20-30-20-30-10-10-20-40-20-30-10-20-20-30-20-30-10-30-20-30-20-20-10-20-10-20-10-20-10-10-10-10-10-30-20-30-10-10-20-40-20-30-20-20-10-30-10-20-20-30-20-30v-10l-20-20-10-30-20-10a730 730 0 0 1-70-120l-20-40-20-30z"/><path fill="#d6106b" d="M1870 10c-20 0-50 40-40 30l20-10c10-20 10-20 20 80a6410 6410 0 0 1 10 620v100l10-30-10-50V490a78360 78360 0 0 0-10-450zh10l10-10zm50 0v20V0zm60 90a2320 2320 0 0 0 0 210v50a6380 6380 0 0 1 20 510v50h-60v-40a15560 15560 0 0 1-20-820V40v190l10 160a61450 61450 0 0 0 10 520v20h-50v-40c0-50-10-60-10-10 0 40 0 50-20 50h-10v-60a17590 17590 0 0 0-20 30l-10 30 10 10h20c10-10 10 0 10 20v30h-10l-20 10-90 20v-60h10c-10-10-20 0-30 10l-10 10-20 20v-10h10l10-10h10v-10h10v60l-30 20-30 20-20 10v-20l-10-30v20l-10-10v20c20-10 10 50 0 70l-10 20v-60l-10 40c0 50 10 60 20 20l30-60 70-40 10-10h10l60-20 60-20h50a2220 2220 0 0 0 140 10l50 10c70 10 190 70 190 90l40 50 10 50c10 60 20 50 20-30 0-70 0-80-10-40v20l-30-40c-30-30-40-50-30-80v-20l-10 30v30l-40-20c-60-30-60-30-60-50l-10-20v10l-10 20-80-20-30-10h-30l10-30c0-20 0-30 10-20l60 10V830v110h-40l-10-270a5100 5100 0 0 0 0 260l-50-20a4140 4140 0 0 1-10-600c0-160-10-310-20-310zm50-90h10v120l10 20V70l-10-50V0zm20 10h10c0 10 10 20 20 10v10a2960 2960 0 0 1 20 180V50l-40-30zm50 40v10l10-10zm-290 20v90-10l10-50V90c0-20 0-20-10-10m290 0h20l-10-10zm20 20v30a31150 31150 0 0 1 0-30m-70 110v50-90zm-240 90 10 90v30-100l10-10-10-40c0-40-10-20-10 30m10 240c0 80 0 100 10 50l-10-40zh10v-10l-10-40zm0 200c0 100 10 120 10 60v-50q-15 0 0 0v-40l-10-40zm310 170 10 40h-20l30 10h10l10 10h10l-10-10c-20-10-20-10-20-40v-50l-10-10zm-110 20v60h-150v-20c0-30 0-40 40-40zm-210 10 10 10zm-20 10h10l-10-10zm-20 0h10zm-20 10h10q15 0 0 0zm450 10 10 20c30 10 30 0 10-10zm-540 40s0 10 0 0l-10 20 10-10h10v-10zm640 30 10 10 10 20h10l10 10-10-20-10-10c0-10-10-20-20-10m40 50 10 10 10-10zm-720 100 10-10h-10zm0 20 10 10v-10zm10 20h10v-10zm10 10v10zm10 20 10 10v-10zm710 0-10 10a2660 2660 0 0 0-10 10c-10 0-20 10-10 20l-10 10-20 10-10 10h-10l-10 10 30-10h10l10-20 10-10 20-30zq15-15 0 0m-680 30 10 10 10-10zm30 20 30 20-10-10-10-10zm550 30-10 10-20 10h20v-10h10zm-460 10v10h10c10-10 0-10-10-10m410 20h10l-10-10zm-30 0 10 10 10-10z"/><path fill="#da4e04" d="m1940 1190-20 30a840 840 0 0 1-50 90l-10 20c-10 20-10 20 20 20l30 10 70 20a810 810 0 0 1 120 20l50 20h20l10 10v-10l-20-20-10-30-30-40v-10l-30-40-20-40-40-60zm-20 670h-40 170zm170 10h20zm-20 0h20zm-220 10v10l30-10zm330 20h10q15 0 0 0c-10 10 0 10 10 10 10 10 10-10-10-10zm-420 20h-10l30-10zm510 10 10 10v-20zm-150 0h10l10 10c-10 0 0 0 0 0h10-10c10-10 10-10-10-10zm-290 10v10l20-10zm-90 40-20 10 50-20zm310-10h30zm-400 10-10 10 20-10 10-10zm270 0h130zm190 0h30zm40 10 20 10v-10zm200 0 10 20h10l-10-20zm-570 30-30 10 60-20zm60-10 10 10q0 15 0 0zq0-15 0 0m-100 10v10l20-10zm590 10v10-20zm-270 0q-15 15 0 0h20zm50 0 20 10-10-10-10-10zm-460 10-20 10zl10-10zm80 0q-15 15 0 0l10-10zm-200 30-10 20 20-20c0 10 0 0 0 0l10-10 10-10 10-10zm610-20 20 10-10-10-20-10zm-710 0 20 20 10 10-10-20h-10v-10zm600 10-10 10zl10-10zm-420-10v20h-10 10zm820 10 50 50 40 40-40-40a430 430 0 0 0-50-50m-790 30s0 10 0 0h10zm770 0 10 10v10h10l-10-10zm-780 10-10 10-10 10 10-10zm750 10v20h10q0-15 0 0l10 10h10l-20-20zm-830 10h-10l-10 10q-15 15 0 0h10zl10-10zm900 0v20h10l20 20 10 10h10l10 10v10-10l-10-10-10-10-30-30zm130 10-10 20zl20-20zm-1120 10v10l10-10 10-10zm40 10-10 20 20-20 10-10zm30 0 10 10q15 15 0 0v-10zq-15 0 0 0m890 10 10 10-10-20zm-890 20-20 20 20-10 20-20zm1010 0c-10 0-10 10 0 0h10q0 15 0 0zm-1080 20-20 20zl20-20zm1060 0 10 10h10l10 20-10-20-10-10zq-15-15 0 0m-1060 10-20 10-10 20-20 20 20-20 20-10 10-10 10-20zm1130 10 10 10 10 10-10-10zm-60 40 40 30-40-40-40-30zm-1140-10h-10l-10 10c0 10 20 0 20-20zm30 0-10 20-10 10-10 10 10-10 10-10 20-10 10-20zm50 10-20 20zl20-20zm1140 0 20 20-20-30zm-1260 30-10 10-10 10 10-10 20-10v-10zm1250 10 30 30 10 10-10-10zl-10-20zm50 0 30 30 20 30-20-40-30-30zm-1230 10-10 10-10 10v10-10l20-10 20-20zm1140-10 10 10 20 20-20-20zm-1210 50h-10l-10 10v10l10-10h10l10-10v-10zm-50 0v10l10-20zm1360 10 20 20-10-20-20-10zm-1280-10v20l-20 10-10 10 10-10 20-10zm1230 10 10 10h10c0 10 0 0 0 0-10-20-10-20-20-10m100 30 10 10 10 10q0 15 0 0v-10l-10-10zl-10-20zm-30 10 10 10zc-10-20-20-20 0 0m-1380 0v20q-15 0 0 0zm1400 10c10 20 10 20 20 10v-10zl-10-20zm-1380 0 20 10v-10zq-15-15 0 0m20 20-10 10h10l10-10zv-10zm1380 10 10 10 10 10-10-10zm-40 10v10zq-15-15 0 0m20 0h20zm-1400 0v20c-20 10-20 10 20 50l20 30-20-30c-30-40-30-40-20-50l10-10v10l20 10 20 20v-10h-10v-10l-20-20-10-10zq-15-15 0 0m1340 50-10 10zl20-20zm0 10-10 20zl10-10zm50 0-20 20zl20-10zm-1320 0v10zs-10 0 0 0m1360 10h-10l-20 30-20 10h10l10-10 20-20h10zm-1350 10q0 15 0 0l10 10 10 10 10 10 10 10-20-30zm80 20 20 20zl-20-20zm1170 20-20 20zl30-30zm-50 0-20 20zl20-20zm-1090 10 10 10 10 10-10-20zm-20 20 10 20zl-20-10zm1120 10-30 30 60-50zm-1060-10 20 20zs-10 0 0 0m1100 30h-10l-10 10-20 10 20-10 10-10zv-10zm-1170 20v10h10v10h10l-10-10zm140 20v30h-10 10c20-20 20-30 0-40zm30 10s0 10 0 0l10 10 10 10s10 0 0 0v-10l-10-10zm870 0-10 10 10 20h30l20-10-20 10-10 10-10-10q-30-15 0-30c10-20 10-10-10 0m-1000 0 10 10v10zl-10-10zm60 0c0 10 0 20 20 20v-10h-10s-10 0 0 0zm910 0v20l-20 20 10-10c20-10 20-10 10-20h10v-10zm90 10-10 20 20-20 10-10zm-1040 10 10 20c10-10 20 0 20 10-10 0 0 0 0 0l-20-20zm40 30h10v-10zm140 0h10zm810 10 30 20 20 20-20-20c-20-30-30-30-30-20m-980 20v10l10-10 10-10h10l10-10zm50-10 20 10-10-10zm80 0 10 10c-10 0 0 0 0 0h10-10zl-10-10zm830 0-10 10 20-20zm-970 40-20 20zl20-20zm170-20 30 10-30-20zm-70 10 10 10 20 10 10 10-10-10-10-10-10-10-20-10zm720 0-20 20h10l10-10 20-10zm90 0v10q15 0 0 0l10-10zm-950 30-20 20h10s-10 0 0 0c0 0 0-10 0 0l10-10 10-10v-10zm290-10 20 10-10-10zm620 10-10 10 20-20zm-120 10-10 10 30-10zm-460 10 50 10-30-10zm550 0-10 10 30-10zm260 10 20 20zl-20-20zm-720 10h10l-10-10zm270 0q-15 0 0 0l-10 10h-10 10zl10-10zm-270 0 10 10h10zm-20 20-10 10h-10q0 15 0 0h10zc0-10 0-20 0 0m70-10 40 10h50-40a1000 1000 0 0 1-50-10m290 10 10 10v-10zq-15-15 0 0m-420 10h10s10 0 0 0l10 10-10-20zm30 10c-10 0 0 0 0 0v20q0 15 0 0v-30zm370 0-10 10 20-10zm-40 10-10 10 20-10q15 0 0 0zm-230 10h50zm120 0v10q15 0 0 0l20-10h30zm60 0h10zq-15 0 0 0m160 80s0 10 0 0l10 10q15 15 0 0v-10zv-20z"/><path fill="#90753e" d="m2040 160 10 10v-10c0-10-10-20-10 0m70 650v10zq0-15 0 0m-230 20v20l10-10zm300 160v10-20zm-120 870h20-30zm60 20 10 10 10-10c10 0 0 0 0 0zm-290 0v10h-10 10zh-10zm330 10h20zm-360 0c-10 10 0 10 10 10v-10zm-20 20h-20 30v10q15 15 0 0v-20zm180 0h30zm250 0 10 10 20 10h10l-20-10-10-10zm-470 10v10zh10zm160 0h-20 170zm30 0h-10q-15 0 0 0zm160 0h20zq-15 0 0 0m60 20 10 10h20-10l-10-10zq0-15 0 0m-450 10h-20v10-10zq15-15 0 0m570-10 20 10h-10zm-20 20-10 30 10-40zm-430 10v10l-10-20zm170 0h40zm-120 10h20q15 0 0 0s-10 0 0 0v-10zm180 0h30l-10-10zm200 0 10 10h20-20zm-420 10h20zm300 0h20zm-310 10h20l10-10h-20zm-220 10-10 20c-10 0 0 0 0 0l10-10 10-10zm770 0h10l20 10zm-180 0 30 10-20-10zm100 0 20 10-10-10zm-440 30 10 10v-10zv-10zm370-10-10 20c0 20 0 10 10-10zm120 10h10zm-620 0-30 20zm540 0 20 10q15 0 0 0h-10v-10zm150 0 20 10 10 20-10-20zm-790 10h10v-10zm740 0v10zq0-15 0 0m10 10v10h10v-10zm-910 10 10 10q15 15 0 0zm130 10-10 10zl10-10zm720-10 20 10 10 20h10l-20-20-10-10zm80 10 10 10-10-20zm-870 10-10 20zl10-10zm130-10 10 10v-10zm530 20 10 10zl-10-20zm-630 10v10l10-10zm70 0v10zq0-15 0 0m740 0 10 10h10zm70 0 10 10q15 15 0 0zq-15 0 0 0m-940 0v10h20q0 15 0 0zm80 40-10 10 20-10 10-10zm-110 0-10 10q15 0 0 0zl10-10zm950-10v10h10zm140 10s0 10 0 0c10 0 20 0 10-10zm-1050 10-20 20 20-10 30-20s10 0 0 0c0-10-20-10-30 10m970-10 10 10-10-20zm50 0 10 10v-10zm-970 10v20h-10 20l10 10v-10l-10-10v-10zm-110 10-10 20-10 10 10-10 20-20zm1000 0 20 20 20 20 10 10v-10l-10-10h-10l-10-10v-10l-10-10zm90 10h-30v20h10zh10zm-1010 10v10l10-20zm1030-10 10 10h10v10l10 10-10-10zm-960 30 10 10 10 10-10-20zm-100 10-10 20-10 10q-15 15 0 0l40-40zm20-10-10 10-20 20 20-20zm1030 10 10 10-20-20zm-1150 0v20l20-20zm1180 40 20 10-30-30zm40-20 10 20 10 20 10 10 10 10v-10h-10l-10-30zm-80 20 30 30-10-20zm-1170 10v10zl10-10zm80 10v10zm-50 10-10 20 20-20 10-10zm30 20-10 10 20-30zm1150-10 10 20v-10zm-620 10v30l10-20c0-20 0-30-10-10m-610 0-20 20h10v-10zq15-15 0 0m1290 10 10 20h10l-10-10-20-20zm-1280 20q-15 15 0 0l10-10zm1250 0 10 10v-10zm-1210 0v10l10-10zm1310 20 10 10zl-10-10zm-1400 0-10 10c10 0 0 0 0 0v10l10 10v10zq15-15 0 0m650 20s0 10 0 0v-10zm720 0 10 10v-10zl-10-10zm-1310 0c-10 20-20 30 0 20v-10q0-15 0 0h10v-20zm-40 0v10h10v-10zm1310 0 10 10h10zm20 20v10h10zm-1350 20-10 10 10 10zc20-10 30 0 20 20v10-40zm1370 10 10 10q0 15 0 0v-10zm30 10v10l10-10h10-10v-10zm30 20-10 10c0-10 0 0 0 0l-10 10s-10 0 0 0l-30 30-20 30q0 15 0 0l10-10 20-20 20-20v-10zm-50 0v10h-10l-10 10v10l10-10 20-20zm-1360 10 20 10-10-10zm-30 0c0 10 40 70 60 70l-30-20-20-40zm660 10v10c10 10 10 0 0 0zm-600 30h10q0 15 0 0v-10zm610 30v10-20zm640 0v10l10-10zm-1210 0 10 10v-10zc-10 0 0 0 0 0m1310 0h10s10 0 0 0zm-1350 10a930 930 0 0 0 110 110v-10l-10-10-60-50zm70 20v10h20q15 15 0 0zm1230 20-10 30 40-40zm10 10-20 20zl20-20zm-1200 0 10 10zl-10-10zm1130 10-20 20 10-20 30-20zm-1070-10 10 10 10 10h10l-20-10zm-20 40 10 10c0-10 0 0 0 0l20 10v-10h-10l-10-10-20-10zm60-10 10 20h10l-10-10zm990 10-10 10c10 10 10 0 10-10 10-10 0-10 0 0m60 0-10 10h10l10-10zm-150 20v10zm-920 10 10 10v-10l-10-10zm80 0v10h10v-10zm960 0-10 10q0 15 0 0zh10zm-1100 0v10l10 10h10l-10-10zq-15 0 0 0m950 10-10 10zh20v-10zm-780 20 20 10 10 10h10l-30-20v-10zm880 10v10l10-10h10c10-20 0-10-20 0m-1010 0h10l-20-10zm870 0h-10zq15-15 0 0m110 0c10 10 10 10-10 30l-10 10 20-10c20-10 10-40-10-40zm-920 0h20zm40 20 20 10 10 10h10l-30-20zq0-15 0 0m100 0 10 10 20 10-20-20zm700 10-10 10zh20zm-860-10 10 10q30 15 0 0zm960 0 10 10 20 10-10-10zm50 60 70 70-10-20a1950 1950 0 0 1-60-50m-1040-20-10 10h10l10-20zm60-10 30 20v-10h-20zm880 0-10 10h-10v10h10v-10zm-100 10s0 10 0 0l-10 10h10l10-10h10zm-680 0h10zq-15 0 0 0m130 10h20zm-90 10h10v10l20 10h20s-20 0-10-10h-10q-15 0 0 0h-10l-10-10zm-80 10h10l10 10h10l-30-20h-10zm660 0h10q15 0 0 0zm90 10 10-10h10zm-440 0h80a450 450 0 0 0-80 0m220 20-10 10 20-20zm60 0-10 10h10l10-10zm100 10-10 10zh10l10-10q0 15 0 0h-10zm-630-10 10 10h20-10zm130 10h30zm350 0h30zm-420 20 30 10 20 10-20-10-10-10zq-15 0 0 0m180 0h40zm90 0 20 10h-20 40c50 0 30-10-40-10h-30zm230 10-20 10h10l20-10h10zm-30 20 10 20v-10c0-10 0-20-10-10m-50 0v10h10l10-10h10zm-310 10 40 10c30 0 30 0 10-10zm280 0h-20l-20 10q0 15 0 0h30zh10c-10 0 0 0 0 0h10zm-310 20h10v-10zm430 30v20-10l-10-20z"/><path fill="#747474" d="M2050 40v10-20zm-130 10v10-20zm-100 80v10-20zm100 10v50-70zm130 10v10-30zm70 30v30a630 630 0 0 0 0-30m-200 100v20-40zm70-10v10-20zm60 10v10-30zm-60 140v20-40zm60 20v30a580 580 0 0 0 0-30m-220 50v10-20zm220 50v20-40zm-170 40v20a490 490 0 0 0 0-20m230 100v10-30zm-280 10v20-30zm220 0v10zq0-15 0 0m-170 30v10-30zm230 50a460 460 0 0 1 0 60V730zm-260 0v10-20zm-20 40s0 10 0 0v-10zm60 10v10-20zm-40 0q0 15 0 0v-10zm290 30v10-20zm-290 40v20-40zm260 10v20a490 490 0 0 0 0-20m-280-20v20zm80 50h20zm60 0h30zm-60 0h20zm-30 70h30zm80 170h40zm260 190v10zh10zm-280 500h30zm70 0h30zm140 30h10l-10-10zm120 20v10l10-20zm-520 0-10 10 20-10zm300 10h30zm-170 0-10 10q-15 0 0 0c15 0 20 0 10-10m-60 20c-10 0-20 0-10 10l20-10zm460 10 10 10-10-20zm-360 20h60zm-280 10-10 10 20-10zm460 0 40 10-30-10zm-430 30v10l10-10zm110 0h-10l-10 10h10l20-10zm570 30 10 10zh-10zm-790 10-10 10zq15-15 0 0m890 30 40 30-20-20zm-870 0v10l10-10zm30 30h10v-10zm900 30h10l-10-10zm40 20h-10v10l10 10zs10 0 0 0m-1090 40v10l10-10v-10zm1120 10v10zq-15-15 0 0m-80 20 20 20-10-20zm-30 10-10 10 20-10c10-20 10-20-10 0m130-10v10zl-10-10zm-1180 20-10 10 20-20zm-60 30-10 10zl10-10zm880 0v10q0 15 0 0zm360 10 20 10zq-15-15 0 0m60 30 20 10-10-10c-10-10-20-20-10 0m-410 20v40zm390 0 10 10-10-20zm-1310 40q-15 15 0 0l10-20zm1370-10 10 10q15 15 0 0zm-750 30v10-20zm750 20 10 10q15 0 0 0zq-15-15 0 0m-750 30v10-30zm310 10q0 15 0 0v-10zm390 40-10 10q-15 15 0 0l20-20zm-690 10v10-20zm670 60-10 10 20-10c10-20 10-20-10 0m-80 20-20 20 50-50zm-300 20v40zl10-40zm-780 0v10h10zm500 10v10c10 10 10 0 0 0zm530 10c-20 20-20 20 0 10l10-20zm-1020 0 20 10 10 10-10-10-10-20zm990 20-10 10h10l10-10zm-30 20-10 10 30-20zm-50 40-10 10zl20-10zm70 10s-10 0 0 0h10v-10zm-120 10-20 20 20-10 20-10zm90 10-10 10zl10-10zm100 0 30 30-20-20zm-310 10-10 10zq0-15 0 0m40 20-40 10-20 10v10l40-20 40-20zm190 0v10l20-20zm-660-10 30 20v-10zm100 40h10l20 10h60-20l-40-10zm-130 10h20l-20-10zm420 0v20l10-10c10-20 10-20-10-10m-390 10h10q15 0 0 0zq-15-15 0 0m30 10h10l-10-10zm540 0q-15 15 0 0c20 0 20-10 10-10zm-310 0 20 10 10 10-10-10zm180 0-10 10zc20 0 10 0 0 0m-240 30 30 10h30zm180 40h-10 30z"/><path fill="#fcb558" d="M1620 1700v10l10-10c10-20 10-20-10 0m-60 100v10l10-10zm-40 70-10 10 20-20zm970 60 10 10zl-10-10zm-520 150-60 10h10zh40zm-120 30-20 10c-10 10 0 10 0 0h20l30-20zm340 0 30 10h10-10l-20-10zm-400 40c-20 0-20 10-10 10l20-20zm470-10 40 30a1140 1140 0 0 1-40-30m-520 40q-15 15 0 0l20-10zm-60 50-50 50a2320 2320 0 0 1-10 20 670 670 0 0 1 60-70m280 40v10-20zm550 90 20 20zl-20-20zm240-10 10 20v10-10zh-10zm-1210 40-20 20-10 10 10-10 10-10zl10-10zm1000 10 10 20zl-10-20zm30 30v20zm-1080 10v10l-10 20-10 10 10-10 20-30zm-330 10v20l10-10c0-20 0-20-10-10m1440 20 10 30 10 10-10-20zm-1140 20 20 30 30 20-30-20-10-30v-10zm80 90a1240 1240 0 0 0 10 0l-50-40zm1000 20-10 20-20 20-10 10 50-50zm-920 50a290 290 0 0 0 70 60l40 20-30-20a1360 1360 0 0 1-80-60m850 20-10 20zl10-10zm-40 40-30 10-30 30 10-10 30-10 40-40zm-100 60-10 10 30-20zm-500 20 60 20h-10l-40-20zm440 10-50 20-40 10 40-10 80-30zm-350 20 130 20h-40a560 560 0 0 1-90-20m-1020 70-10 10zl10-10zM520 3930h30zm370 0h30zm390 10h40zm390 0h30zm2040 10h-40zq0-15 0 0m-3020 20h10zq-15 0 0 0m760 10h20z"/></g></svg>